<svg xmlns="http://www.w3.org/2000/svg" xmlns:xlink="http://www.w3.org/1999/xlink"><defs><style>
    .sprite-symbol-usage {display: none;}
    .sprite-symbol-usage:target {display: inline;}
  </style><symbol fill="none" viewBox="0 0 43 23" id="angle_arrow_down"><path fill-rule="evenodd" clip-rule="evenodd" d="M.293.293a1 1 0 0 1 1.414 0L21.5 20.086 41.293.293a1 1 0 1 1 1.414 1.414l-20.5 20.5a1 1 0 0 1-1.414 0l-20.5-20.5a1 1 0 0 1 0-1.414Z" fill="currentColor" /></symbol><symbol fill="none" viewBox="0 0 100 100" id="benefit_1"><path d="M41.463 82.166h17.073l-2.222-26.553A11.725 11.725 0 0 1 50 57.453H50c-2.322 0-4.487-.677-6.314-1.84l-2.222 26.553ZM7.362 59.21c2.995 6.06 10.338 8.546 16.4 5.553L43.1 55.216c-2.961-2.143-4.894-5.624-4.894-9.55 0-.85.092-1.685.267-2.497L7.64 58.39a.611.611 0 0 0-.278.819ZM92.635 59.21a.611.611 0 0 0-.278-.82L61.524 43.17c.174.811.267 1.646.267 2.495 0 3.926-1.932 7.408-4.894 9.552l19.337 9.547c6.063 2.993 13.406.507 16.4-5.553ZM56.429 35.78V11.628C56.429 5.205 51.22 0 44.796 0c-.676 0-1.224.548-1.224 1.223v34.558A11.715 11.715 0 0 1 50 33.877c2.318 0 4.532.666 6.429 1.904ZM50 51.585a5.928 5.928 0 0 0 5.922-5.921 5.88 5.88 0 0 0-1.735-4.186A5.886 5.886 0 0 0 50 39.744c-1.582 0-3.07.616-4.189 1.734a5.88 5.88 0 0 0-1.734 4.187A5.928 5.928 0 0 0 50 51.585H50ZM97.065 94.133H59.538l-.51-6.1H40.972l-.51 6.1H2.934a2.934 2.934 0 1 0 0 5.867h94.13a2.934 2.934 0 1 0 0-5.867Z" fill="#7FB2FF" /></symbol><symbol fill="none" viewBox="0 0 100 100" id="benefit_2"><path d="M86.777 100 78.516 0H21.484l-8.261 100h73.554ZM47.07 6.962h5.86v22.83h-5.86V6.963Zm0 31.623h5.86v22.83h-5.86v-22.83Zm5.86 31.623v22.83h-5.86v-22.83h5.86ZM91.739 0h-7.344l8.262 100H100L91.739 0ZM7.343 100 15.605 0H8.26L0 100h7.343Z" fill="#D84B45" /></symbol><symbol fill="none" viewBox="0 0 94 94" id="benefit_3"><g clip-path="url(#benefit_3_a)" fill="#162564"><path d="M81.916 50.032h9.097v-7.297l1.931-.55c.65-.187 1.1-.781 1.1-1.459v-7.371A1.515 1.515 0 0 0 92.1 31.9l-24.783 7.306L5.012 21.285a1.516 1.516 0 0 0-1.935 1.457v6.639c0 .678.449 1.272 1.1 1.457l4.965 1.416v5.65h10.613c.837 0 1.516.678 1.516 1.515v10.613c0 .837-.68 1.516-1.516 1.516H9.142v4.811l-8.01 2.36a1.516 1.516 0 0 0-1.087 1.455v6.482a1.518 1.518 0 0 0 1.931 1.459l2.617-.746V86.11c-.987 1.136-1.516 2.762-1.516 4.856 0 .837.68 1.516 1.516 1.516H92.53c.837 0 1.516-.679 1.516-1.516 0-2.98-1.07-5.014-3.032-6.008v-7.635h-9.097c-.837 0-1.516-.68-1.516-1.517V66.71c0-.837.679-1.516 1.516-1.516h9.097v-4.549h-9.097c-.837 0-1.516-.68-1.516-1.516v-7.58c0-.838.679-1.517 1.516-1.517ZM6.109 28.238v-3.483L61.9 40.804l-.848.25-4.924 1.452L6.11 28.238Zm.134 61.213c.145-.7.41-1.179.772-1.511.022-.017.047-.024.068-.043.488-.409 1.237-.617 2.225-.617.187 0 .414.064.696.198a1.52 1.52 0 0 0 2.044-.793 9.1 9.1 0 0 1 .444-.928c1.116-2.017 2.78-3 5.067-3 2.613 0 4.415 1.285 5.511 3.928.158.382.467.682.852.832.232.09.478.102.722.073.16-.01.319-.043.469-.112.283-.132.51-.198.695-.198 1.594 0 2.7.402 3.066 2.17l-22.631.001Zm40.802 0h-3.032v-19.71h-4.549v19.71h-3.032v-19.71h-10.56V84.25h-.062c-.177 0-.355.012-.534.036-.658-1.189-1.478-2.142-2.436-2.873V69.742h-4.602v10.006l-.679-.02c-.83 0-1.614.096-2.353.28V68.226c0-.837.68-1.516 1.516-1.516H45.528c.838 0 1.517.679 1.517 1.516V89.45ZM60.69 66.71c-.837 0-1.516.679-1.516 1.516V89.45h-4.548V53.108l19.71-5.618v33.887a7.76 7.76 0 0 0-.642.542l-.123.114a9.337 9.337 0 0 0-.52.544c-.082.094-.16.193-.24.291-.131.166-.265.33-.39.508a10.38 10.38 0 0 0-.45.715c-.039.068-.086.127-.124.197a3.956 3.956 0 0 0-.533-.037h-.01V68.226c0-.837-.679-1.516-1.516-1.516H60.69Zm23.94 19.05c.159.288.308.597.444.928.158.382.467.682.852.832.176.068.362.103.572.097.212-.003.421-.046.618-.138.284-.132.511-.197.698-.197.468 0 .903.053 1.294.156.016.005.032-.001.047.002.866.238 1.473.8 1.724 2.013H68.271c.021-.096.035-.21.071-.337.183-.608.517-1.13 1.085-1.444.41-.225.875-.33 1.34-.37.403-.035.829-.02 1.206.14.411.174.79.248 1.227.08.385-.15.694-.45.852-.833.552-1.326 1.404-2.518 2.677-3.23 1.903-1.062 4.58-.951 6.323.4.657.507 1.176 1.175 1.578 1.9Zm-9.035-41.783-.159.045-22.742 6.483-47 13.398s-.002 0-.002.002l-2.615.746v-3.342l8.007-2.36h.003l45.469-13.406.009-.003 11.186-3.298 23.26-6.857v4.2l-15.416 4.392ZM80.399 7.58a3.035 3.035 0 0 1 3.032 3.033 1.517 1.517 0 0 0 3.032 0 6.07 6.07 0 0 1 6.065-6.065 1.517 1.517 0 0 0 0-3.032 9.103 9.103 0 0 0-7.96 4.697 6.044 6.044 0 0 0-4.17-1.665 1.517 1.517 0 0 0 0 3.033ZM33.4 24.258h15.162a6.07 6.07 0 0 0 6.064-6.064h3.032a6.07 6.07 0 0 0 6.065-6.065c0-3.55-3.123-6.407-6.683-6.031a7.608 7.608 0 0 0-6.962-4.582 7.604 7.604 0 0 0-6.96 4.582c-2.099-.223-4.028.697-5.274 2.204-1.728.79-3.093 2.15-3.827 3.86-3.55-.383-6.681 2.482-6.681 6.031a6.07 6.07 0 0 0 6.065 6.065Zm0-9.097c.357 0 .724.072 1.09.214.417.16.884.13 1.277-.085.391-.215.669-.593.758-1.03.034-.172.078-.339.13-.503.048.167.119.323.18.484.04.11.074.223.12.329.762 1.715 2.386 3.005 4.213 3.45 1.267.31 2.675.172 3.973.172h6.453a3.035 3.035 0 0 1-3.032 3.032H33.4a3.035 3.035 0 0 1-3.033-3.032c0-1.672 1.36-3.03 3.033-3.03Z" /><path d="M18.24 40.935H9.142v7.581h9.096v-7.58ZM91.012 68.226h-7.58v6.064h7.58v-6.064ZM91.012 53.065h-7.58v4.548h7.58v-4.548Z" /></g><defs></defs></symbol><clipPath id="benefit_3_a"><path fill="#fff" d="M0 0h94v94H0z" /></clipPath><symbol fill="none" viewBox="0 0 100 100" id="benefit_4"><g clip-path="url(#benefit_4_a)" fill="#58A85C"><path d="M96.046 65.23a13.942 13.942 0 0 1-2.934 2.678v11.429h1.429A5.455 5.455 0 0 0 100 73.928v-13.8l-3.954 5.102ZM71.939 40.816h14.72c.433 0 .892-.05 1.351-.153V26.071c0-3.01-2.449-5.408-5.434-5.408H5.46A5.455 5.455 0 0 0 0 26.071v58.495c.026 3.01 2.449 5.46 5.46 5.485h77.116a5.482 5.482 0 0 0 5.434-5.485l-.025-14.821c-.434.05-.893.102-1.352.127H71.939c-8.01-.025-14.515-6.53-14.515-14.54 0-8.01 6.505-14.516 14.515-14.516Z" /><path d="M94.541 9.95H17.424a5.482 5.482 0 0 0-5.434 5.484v.128h70.587c5.816 0 10.536 4.693 10.536 10.51v10.663L100 27.857V15.434c-.025-3.01-2.448-5.46-5.459-5.485ZM99.974 36.2 96.02 41.3a11.864 11.864 0 0 1-4.31 3.47 11.637 11.637 0 0 1-5.078 1.148H71.94c-5.204.025-9.414 4.234-9.414 9.438 0 5.205 4.21 9.414 9.414 9.44h14.719c2.092-.026 4.082-.996 5.357-2.654L100 51.786l-.026-15.587ZM77.653 57.907H71.53a2.558 2.558 0 0 1-2.55-2.55 2.558 2.558 0 0 1 2.55-2.552h6.123a2.559 2.559 0 0 1 2.551 2.551 2.559 2.559 0 0 1-2.551 2.551Z" /></g><defs></defs></symbol><clipPath id="benefit_4_a"><path fill="#fff" d="M0 0h100v100H0z" /></clipPath><symbol fill="currentColor" viewBox="0 0 59 25" id="left_arrow"><path fill-rule="evenodd" clip-rule="evenodd" d="M13.034.914a1.5 1.5 0 0 1 .052 2.12L4.071 12.5l9.015 9.465a1.5 1.5 0 0 1-2.172 2.07l-10-10.5a1.5 1.5 0 0 1 0-2.07l10-10.5a1.5 1.5 0 0 1 2.12-.051Z" /><path fill-rule="evenodd" clip-rule="evenodd" d="M3.5 12.5A1.5 1.5 0 0 1 5 11h52a1.5 1.5 0 0 1 0 3H5a1.5 1.5 0 0 1-1.5-1.5Z" /></symbol><symbol fill="currentColor" viewBox="0 0 59 25" id="right_arrow"><path fill-rule="evenodd" clip-rule="evenodd" d="M45.965 24.086a1.5 1.5 0 0 1-.051-2.12l9.015-9.466-9.015-9.466A1.5 1.5 0 0 1 48.086.966l10 10.5a1.5 1.5 0 0 1 0 2.069l-10 10.5a1.5 1.5 0 0 1-2.12.051Z" /><path fill-rule="evenodd" clip-rule="evenodd" d="M55.5 12.5A1.5 1.5 0 0 1 54 14H2a1.5 1.5 0 0 1 0-3h52a1.5 1.5 0 0 1 1.5 1.5Z" /></symbol></defs><use id="angle_arrow_down-usage" xlink:href="#angle_arrow_down" class="sprite-symbol-usage" /><use id="benefit_1-usage" xlink:href="#benefit_1" class="sprite-symbol-usage" /><use id="benefit_2-usage" xlink:href="#benefit_2" class="sprite-symbol-usage" /><use id="benefit_3-usage" xlink:href="#benefit_3" class="sprite-symbol-usage" /><use id="benefit_4-usage" xlink:href="#benefit_4" class="sprite-symbol-usage" /><use id="left_arrow-usage" xlink:href="#left_arrow" class="sprite-symbol-usage" /><use id="right_arrow-usage" xlink:href="#right_arrow" class="sprite-symbol-usage" /></svg>