<svg width="82" height="68" viewBox="0 0 82 68" fill="none" xmlns="http://www.w3.org/2000/svg">
<path d="M10.9173 31.3469V27.2031H1.92155V31.3469H3.64075V49.1664H0V53.3264H13.0001V49.1664H9.45806V31.3469H10.9173Z" fill="white"/>
<path d="M34.5902 41.8081V49.1662H37.3261V53.3263H28.7712V42.272C28.7712 41.4243 28.6412 40.8085 28.3813 40.4231C28.1214 40.0392 27.6854 39.8465 27.0734 39.8465C25.9646 39.8465 24.8508 40.2418 23.7321 41.0323V49.163H26.5716V53.323H15.1953V49.163H17.9658V39.4839H15.1953V35.2552H23.7321V36.9572C25.4644 35.6619 27.2412 35.0151 29.0657 35.0151C30.8787 35.0151 32.2524 35.5852 33.1868 36.7252C34.1213 37.8685 34.5902 39.5623 34.5902 41.8081Z" fill="white"/>
<path d="M50.4155 35.8937V35.2567H54.5547V40.5519H50.4155C50.0568 39.2796 48.7292 38.6442 46.4325 38.6442C44.7808 38.6442 43.9566 39.1032 43.9566 40.0195C43.9566 40.4213 44.1754 40.7185 44.6146 40.9129C45.0539 41.1073 45.6938 41.2689 46.5362 41.3947C48.9019 41.6936 50.7675 42.1199 52.1297 42.6752C53.4919 43.2306 54.4445 43.9182 54.9874 44.7381C55.5303 45.558 55.8017 46.5511 55.8017 47.7206C55.8017 49.6234 55.147 51.1048 53.8358 52.1648C52.5246 53.2248 50.7445 53.7557 48.4939 53.7557C46.3009 53.7557 44.8104 53.3196 44.0256 52.449V53.3261H39.8009V47.1032H44.0256C44.1408 47.9623 44.5603 48.6385 45.2809 49.1317C46.0015 49.625 46.8932 49.8716 47.9559 49.8716C48.9957 49.8716 49.7623 49.754 50.2592 49.5188C50.756 49.2836 51.0044 48.8737 51.0044 48.289C51.0044 47.8888 50.9008 47.5752 50.6935 47.3514C50.4862 47.1277 50.0848 46.93 49.4892 46.7585C48.8953 46.587 47.9856 46.3927 46.7616 46.1738C44.0372 45.7491 42.0778 45.0648 40.8834 44.1191C39.689 43.1734 39.0918 41.8994 39.0918 40.2939C39.0918 38.6556 39.712 37.3653 40.9541 36.4262C42.1946 35.487 43.8315 35.0166 45.8633 35.0166C47.5002 35.0182 49.0187 35.309 50.4155 35.8937Z" fill="white"/>
<path d="M68.6659 49.1664V53.3264H57.4277V49.1664H60.2673V31.3469H57.4277V27.2031H66.0862V49.1664H68.6659Z" fill="white"/>
<path d="M81.9998 49.166V53.3261H70.7617V49.166H73.5322V39.487H70.7617V35.2583H79.2985V49.166H81.9998Z" fill="white"/>
<path d="M79.5031 30.1183C79.5031 31.0346 79.1889 31.7941 78.5588 32.3968C77.9287 32.9979 77.1818 33.3 76.3164 33.3C75.4395 33.3 74.6861 32.9881 74.0576 32.3625C73.4275 31.7386 73.1133 30.9905 73.1133 30.1183C73.1133 29.2592 73.4275 28.5177 74.0576 27.8921C74.6861 27.2682 75.4395 26.9546 76.3164 26.9546C77.1818 26.9546 77.9303 27.2666 78.5588 27.8921C79.1889 28.516 79.5031 29.2576 79.5031 30.1183Z" fill="white"/>
<path d="M76.3073 6.79461L1.92773 25.1711V18.3765L76.3073 0V6.79461Z" fill="#E83C3D"/>
<path d="M6.76638 64.7057H4.33976V66.7948H3.49414V62.0059H4.33976V63.9577H6.76638V62.0059H7.61199V66.7948H6.76638V64.7057Z" fill="white"/>
<path d="M14.0707 66.4027C13.8568 66.5612 13.5903 66.6869 13.2711 66.7817C12.952 66.8764 12.6065 66.9221 12.233 66.9221C11.8283 66.9221 11.4779 66.8633 11.1801 66.7441C10.8824 66.6249 10.6389 66.4566 10.4497 66.2378C10.2605 66.0189 10.119 65.7543 10.0269 65.444C9.93474 65.1337 9.88867 64.7874 9.88867 64.4036C9.88867 63.582 10.0927 62.9548 10.499 62.5203C10.907 62.0859 11.4861 61.8687 12.2413 61.8687C12.4798 61.8687 12.7184 61.8948 12.9586 61.9454C13.1971 61.9977 13.4126 62.094 13.6018 62.2378C13.791 62.3815 13.9457 62.5775 14.0657 62.8258C14.1858 63.0757 14.2451 63.4007 14.2451 63.8025C14.2451 63.9005 14.2418 64.0116 14.2352 64.1406C14.2286 64.268 14.2171 64.3921 14.199 64.5146H10.754C10.7655 65.0749 10.9004 65.4979 11.1587 65.7821C11.4154 66.0679 11.8546 66.2117 12.4732 66.2117C12.7299 66.2117 12.975 66.1676 13.2086 66.0794C13.4406 65.9912 13.6216 65.8866 13.7515 65.7641L14.0707 66.4027ZM13.4373 63.9119C13.4488 63.4252 13.3501 63.0822 13.1395 62.8813C12.9273 62.6804 12.6328 62.5808 12.2528 62.5808C11.8234 62.5808 11.4845 62.6804 11.2328 62.8813C10.9811 63.0822 10.8346 63.4252 10.7919 63.9119H13.4373Z" fill="white"/>
<path d="M21.0637 68.0001H20.4846L20.3382 66.7964H16.2763L16.1118 68.0001H15.5508V66.0843H16.1661C16.2269 66.0108 16.3059 65.8834 16.3997 65.7004C16.4951 65.5175 16.5889 65.2643 16.6794 64.9393C16.7715 64.6143 16.8521 64.2108 16.9229 63.7306C16.9936 63.2504 17.0314 62.6755 17.038 62.0059H20.2823V66.0843H21.0637V68.0001ZM19.4383 66.0843V62.718H17.803C17.7849 62.9924 17.757 63.2831 17.7208 63.5934C17.6846 63.9038 17.6336 64.2092 17.5694 64.5097C17.5052 64.8103 17.4296 65.0977 17.344 65.3721C17.2585 65.6465 17.1565 65.8834 17.0413 66.0843H19.4383Z" fill="white"/>
<path d="M23.0134 62.006L23.3621 61.988C23.5579 61.9766 23.7718 61.9619 24.0054 61.9472C24.2374 61.9325 24.5072 61.9243 24.8132 61.9243C25.5239 61.9243 26.0339 62.024 26.3432 62.2216C26.6525 62.4192 26.8071 62.7132 26.8071 63.1019C26.8071 63.3143 26.7314 63.5299 26.5817 63.7455C26.432 63.9611 26.1935 64.1179 25.8694 64.2159V64.3155C26.2741 64.3939 26.5636 64.5278 26.738 64.7173C26.9124 64.9051 26.9996 65.155 26.9996 65.4654C26.9996 65.9455 26.8005 66.3 26.4024 66.5286C26.0043 66.7573 25.4038 66.87 24.601 66.87C24.3311 66.87 24.0761 66.8618 23.8376 66.8471C23.599 66.8324 23.3654 66.8161 23.14 66.7965C23.1154 66.7965 23.094 66.7949 23.0759 66.7916C23.0578 66.7883 23.0364 66.7867 23.0117 66.7867V62.006H23.0134ZM24.907 64.0313C25.0419 64.0313 25.1702 64.0133 25.2936 63.9774C25.4153 63.9415 25.5255 63.8908 25.6242 63.8239C25.7213 63.7585 25.8003 63.6818 25.8579 63.5952C25.9154 63.5086 25.9451 63.4139 25.9451 63.311C25.9451 63.0595 25.8579 62.8831 25.6835 62.7834C25.5091 62.6838 25.2097 62.6348 24.7869 62.6348C24.6454 62.6348 24.5039 62.6397 24.3591 62.6479C24.2143 62.656 24.0482 62.6642 23.859 62.6707V64.0297H24.907V64.0313ZM23.859 66.1399C23.9922 66.1579 24.1239 66.1709 24.2505 66.1807C24.3772 66.1905 24.5351 66.1938 24.7243 66.1938C25.2047 66.1938 25.5502 66.1317 25.7641 66.0076C25.978 65.8835 26.0832 65.6777 26.0832 65.3918C26.0832 65.2759 26.0619 65.1697 26.0191 65.0734C25.9763 64.9754 25.9072 64.8937 25.8102 64.8267C25.7131 64.7598 25.5815 64.7059 25.4137 64.6667C25.2459 64.6275 25.0419 64.6079 24.7984 64.6079H23.859V66.1399Z" fill="white"/>
<path d="M32.6157 64.0589L32.744 63.11H32.6437L32.1929 64.0034L29.9324 66.7948H29.2793V62.0059H30.1249V64.8331L30.0608 65.6727H30.1611L30.5839 64.8609L32.7983 62.0059H33.4597V66.7948H32.6141V64.0589H32.6157Z" fill="white"/>
<path d="M37.7431 64.6796L36.2362 66.7964H35.2441L36.8515 64.6339L37.2644 64.3137L36.6853 63.9217L35.3626 62.0059H36.2822L37.6889 64.0769H38.2959V62.0059H39.1415V64.1765L39.6927 64.0312L41.1075 62.0059H42.0173L40.6304 63.9119L40.1895 64.2582L40.7587 64.66L42.2657 66.7948H41.2457L39.7387 64.642H39.1415V66.7948H38.2959V64.5326L37.7431 64.6796Z" fill="white"/>
<path d="M47.364 64.0589L47.4924 63.11H47.392L46.9412 64.0034L44.6808 66.7948H44.0293V62.0059H44.8749V64.8331L44.8108 65.6727H44.9111L45.3339 64.8609L47.5483 62.0059H48.2097V66.7948H47.364V64.0589Z" fill="white"/>
<path d="M55.1927 64.0865L55.2486 63.1098H55.1384L54.7287 63.8579L53.4998 65.6725H53.2152L51.9106 63.8579L51.5437 63.1098H51.4433L51.5256 64.0767V66.7962H50.7441V62.0073H51.6259L53.0688 64.1143L53.4175 64.7807L53.7992 64.0963L55.1351 62.0073H56.0366V66.7962H55.191V64.0865H55.1927Z" fill="white"/>
<path d="M58.3203 64.4052C58.3203 64.0099 58.373 63.6555 58.4766 63.3419C58.5803 63.0283 58.7333 62.7621 58.9356 62.5432C59.138 62.3243 59.3847 62.1561 59.6759 62.0418C59.9671 61.9258 60.2994 61.8687 60.6729 61.8687C61.0644 61.8687 61.4083 61.9323 61.7011 62.0597C61.9956 62.1871 62.2407 62.3652 62.4365 62.5938C62.6323 62.8225 62.7787 63.0904 62.8725 63.3974C62.9679 63.7045 63.0156 64.041 63.0156 64.4052C63.0156 64.7939 62.9613 65.1435 62.8544 65.4538C62.7474 65.7641 62.5945 66.0287 62.3954 66.2476C62.1963 66.4664 61.9512 66.6347 61.66 66.749C61.3688 66.865 61.0398 66.9221 60.6729 66.9221C60.2682 66.9221 59.9194 66.8584 59.6249 66.731C59.3304 66.6036 59.087 66.4272 58.8945 66.2019C58.702 65.9765 58.5572 65.7102 58.4634 65.4032C58.3664 65.0977 58.3203 64.7645 58.3203 64.4052ZM59.2383 64.4052C59.2383 64.6306 59.2646 64.8511 59.3156 65.0667C59.3666 65.2823 59.4505 65.4767 59.5657 65.6465C59.6809 65.8164 59.8289 65.9536 60.0099 66.0565C60.1909 66.1594 60.4146 66.2117 60.6811 66.2117C61.6238 66.2117 62.096 65.609 62.096 64.4052C62.096 64.1684 62.0696 63.9397 62.0186 63.7208C61.9676 63.502 61.8854 63.3092 61.7735 63.141C61.6616 62.9744 61.5152 62.8388 61.3326 62.7343C61.1516 62.6314 60.9328 62.5791 60.6795 62.5791C60.2073 62.5791 59.8487 62.7294 59.6035 63.0299C59.3617 63.3337 59.2383 63.7911 59.2383 64.4052Z" fill="white"/>
<path d="M68.9325 66.4681C68.7187 66.62 68.467 66.7343 68.1791 66.8094C67.8912 66.8862 67.5885 66.9238 67.2693 66.9238C66.8646 66.9238 66.5207 66.8633 66.2361 66.7408C65.9515 66.6183 65.7195 66.4485 65.5419 66.2296C65.3642 66.0108 65.2359 65.7462 65.1553 65.4358C65.0746 65.1255 65.0352 64.7825 65.0352 64.4052C65.0352 63.5967 65.2326 62.9711 65.6274 62.5301C66.0223 62.0891 66.5915 61.8687 67.3318 61.8687C67.6559 61.8687 67.9389 61.8981 68.1774 61.9552C68.416 62.014 68.6315 62.0843 68.8207 62.1692L68.6019 62.8535C68.4374 62.7686 68.2597 62.7016 68.0672 62.6526C67.8747 62.6036 67.6674 62.5791 67.442 62.5791C66.45 62.5791 65.9532 63.1867 65.9532 64.4036C65.9532 64.6355 65.9795 64.8576 66.0354 65.0749C66.0914 65.2921 66.1785 65.4816 66.3003 65.6498C66.422 65.8164 66.5816 65.952 66.779 66.0565C66.9764 66.1594 67.2183 66.2117 67.5045 66.2117C67.7595 66.2117 67.9833 66.1774 68.1758 66.1071C68.3683 66.0369 68.5278 65.9536 68.6562 65.8556L68.9325 66.4681Z" fill="white"/>
<path d="M74.3091 62.718H72.6359V66.7964H71.7903V62.718H70.1172V62.0059H74.3074V62.718H74.3091Z" fill="white"/>
<path d="M76.8811 63.8401C77.0769 63.809 77.2578 63.7894 77.424 63.7813C77.5901 63.7715 77.7366 63.7666 77.8649 63.7666C78.2318 63.7666 78.5427 63.8025 78.7977 63.876C79.0527 63.9495 79.2583 64.0491 79.4179 64.1765C79.5775 64.3039 79.6927 64.4542 79.7634 64.6273C79.8342 64.8005 79.8687 64.9883 79.8687 65.1892C79.8687 65.7674 79.6762 66.1888 79.2896 66.4534C78.903 66.718 78.2992 66.8503 77.4799 66.8503C77.2233 66.8503 76.9781 66.847 76.7445 66.8405C76.5109 66.834 76.2757 66.8225 76.0371 66.8046V62.0059H76.8827V63.8401H76.8811ZM76.8811 66.0843C77.1361 66.1202 77.3944 66.1398 77.656 66.1398C78.0985 66.1398 78.4259 66.063 78.6348 65.9079C78.8438 65.7527 78.9491 65.5387 78.9491 65.2643C78.9491 65.021 78.8471 64.8168 78.6447 64.6535C78.4407 64.4901 78.1199 64.4068 77.6839 64.4068C77.5688 64.4068 77.4404 64.4117 77.3022 64.4215C77.1624 64.4297 77.0226 64.4509 76.8827 64.4803V66.0843H76.8811Z" fill="white"/>
</svg>
