<svg width="82" height="54" viewBox="0 0 82 54" fill="none" xmlns="http://www.w3.org/2000/svg">
<path d="M10.9246 31.4877V27.3364H1.92496V31.4877H3.63604V49.3893H0V53.5734H12.9976V49.3893H9.46027V31.4877H10.9246Z" fill="white"/>
<path d="M34.5834 42.0054V49.3892H37.3145V53.5733H28.7591V42.4648C28.7591 41.6116 28.6275 40.9881 28.3643 40.6107C28.101 40.2333 27.6733 40.0364 27.0645 40.0364C25.9622 40.0364 24.8434 40.4302 23.7246 41.2342V49.3892H26.5709V53.5733H15.2021V49.3892H17.9662V39.659H15.2021V35.4092H23.7411V37.1157C25.4686 35.8194 27.2455 35.1631 29.0717 35.1631C30.8815 35.1631 32.2635 35.7374 33.2013 36.886C34.1227 38.051 34.5834 39.741 34.5834 42.0054Z" fill="white"/>
<path d="M50.4111 36.0655V35.4256H54.5571V40.7419H50.4111C50.0491 39.4621 48.7329 38.8222 46.4295 38.8222C44.7843 38.8222 43.9452 39.2816 43.9452 40.2005C43.9452 40.6107 44.1591 40.906 44.6033 41.1029C45.0475 41.2998 45.6892 41.4639 46.5282 41.5788C48.8974 41.8741 50.7566 42.3007 52.1221 42.8586C53.4877 43.4165 54.442 44.1057 54.9849 44.9261C55.5278 45.7465 55.7911 46.7474 55.7911 47.9288C55.7911 49.8322 55.133 51.3253 53.8332 52.3919C52.517 53.4584 50.7401 53.9835 48.4861 53.9835C46.2979 53.9835 44.8007 53.5405 44.011 52.6708V53.5569H39.7827V47.3053H44.011C44.1262 48.1749 44.5375 48.8477 45.2614 49.3399C45.9853 49.8322 46.8738 50.0783 47.9432 50.0783C48.9797 50.0783 49.753 49.9635 50.2465 49.7173C50.7401 49.4876 50.9869 49.0774 50.9869 48.4867C50.9869 48.0765 50.8882 47.7647 50.6743 47.5514C50.4604 47.3217 50.0656 47.1248 49.4733 46.9607C48.881 46.7802 47.9761 46.5997 46.7421 46.37C44.011 45.9434 42.0531 45.2542 40.8685 44.3026C39.6675 43.3509 39.0752 42.071 39.0752 40.463C39.0752 38.8222 39.7004 37.5259 40.9343 36.5742C42.1683 35.6225 43.8136 35.1631 45.8372 35.1631C47.499 35.1795 49.029 35.4748 50.4111 36.0655Z" fill="white"/>
<path d="M68.6737 49.3893V53.5734H57.4365V49.3893H60.2664V31.4877H57.4365V27.3364H66.0906V49.3893H68.6737Z" fill="white"/>
<path d="M81.9999 49.3893V53.5735H70.7627V49.3893H73.5432V39.6756H70.7627V35.4258H79.3016V49.3893H81.9999Z" fill="white"/>
<path d="M79.499 30.2571C79.499 31.176 79.1864 31.9472 78.5612 32.5379C77.936 33.145 77.1792 33.4404 76.3237 33.4404C75.4517 33.4404 74.6948 33.1286 74.0696 32.5051C73.4444 31.8816 73.1318 31.1268 73.1318 30.2571C73.1318 29.3875 73.4444 28.6491 74.0696 28.0256C74.6948 27.4021 75.4517 27.0903 76.3237 27.0903C77.1956 27.0903 77.936 27.4021 78.5612 28.0256C79.1864 28.6491 79.499 29.3875 79.499 30.2571Z" fill="white"/>
<path d="M76.3072 6.82589L1.9248 25.2853V18.4594L76.3072 0V6.82589Z" fill="#D84B45"/>
</svg>
