<svg width="100" height="100" viewBox="0 0 100 100" fill="none" xmlns="http://www.w3.org/2000/svg">
<path d="M41.4629 82.1664H58.5357L56.3139 55.6133C54.4873 56.7758 52.3227 57.4527 50.0014 57.4533H49.9994C47.6775 57.4533 45.5119 56.7764 43.6848 55.6133L41.4629 82.1664Z" fill="#7FB2FF"/>
<path d="M7.36231 59.21C10.357 65.2701 17.6998 67.7563 23.7627 64.7631L43.1004 55.2164C40.1387 53.0732 38.2064 49.592 38.2061 45.6662C38.2061 44.8162 38.2982 43.9809 38.4727 43.1689L7.64004 58.3906C7.33692 58.5402 7.2125 58.907 7.36231 59.21Z" fill="#7FB2FF"/>
<path d="M92.6346 59.2098C92.7844 58.9068 92.66 58.54 92.3568 58.3904L61.5244 43.1689C61.6984 43.9801 61.7908 44.8146 61.7908 45.6637C61.7912 49.5902 59.8588 53.0725 56.8965 55.2162L76.2342 64.7629C82.2973 67.7561 89.6398 65.2699 92.6346 59.2098Z" fill="#7FB2FF"/>
<path d="M56.4286 35.7807V11.6266C56.4286 5.20547 51.2207 0 44.7963 0C44.1203 0 43.5723 0.547852 43.5723 1.22344V35.7807C45.4684 34.5434 47.6824 33.8775 49.9996 33.8773C52.3178 33.8773 54.5323 34.5432 56.4286 35.7807Z" fill="#7FB2FF"/>
<path d="M50.0004 51.5846C53.266 51.584 55.9227 48.928 55.9223 45.6637C55.9221 44.0824 55.3059 42.5957 54.1871 41.4777C53.0684 40.3598 51.5812 39.7441 49.9992 39.7441C49.9992 39.7441 49.9988 39.7441 49.9986 39.7441C48.4166 39.7443 46.9291 40.3602 45.8105 41.4785C44.692 42.5969 44.076 44.0836 44.0762 45.6653C44.0764 48.9293 46.7334 51.585 49.9992 51.585H50.0004V51.5846Z" fill="#7FB2FF"/>
<path d="M97.065 94.1326H59.5379L59.0273 88.0322H40.9727L40.4621 94.1326H2.93496C1.31406 94.1326 0 95.4461 0 97.0662C0 98.6863 1.31406 99.9998 2.93496 99.9998H97.065C98.6859 99.9998 100 98.6863 100 97.0662C100 95.4461 98.6859 94.1326 97.065 94.1326Z" fill="#7FB2FF"/>
</svg>
