<svg width="94" height="94" viewBox="0 0 94 94" fill="none" xmlns="http://www.w3.org/2000/svg">
<g clip-path="url(#clip0_163_308)">
<path d="M81.9159 50.0322H91.0127V42.7351L92.9442 42.1847C93.5946 41.9982 94.0449 41.4039 94.0449 40.7262V33.3548C94.0449 32.8772 93.8205 32.4269 93.437 32.1403C93.0549 31.8538 92.5576 31.7659 92.0997 31.9008L67.3171 39.207L5.01176 21.2849C4.55389 21.153 4.06266 21.2439 3.6806 21.5305C3.30157 21.817 3.07718 22.2658 3.07718 22.7419V29.381C3.07718 30.0587 3.52595 30.653 4.17789 30.838L9.1417 32.2541V37.9032H19.7546C20.5915 37.9032 21.2707 38.5824 21.2707 39.4193V50.0322C21.2707 50.8691 20.5915 51.5483 19.7546 51.5483H9.1417V56.359L1.13199 58.7196C0.487632 58.9091 0.0449219 59.5019 0.0449219 60.1736V66.6565C0.0449219 67.1311 0.267793 67.5799 0.646825 67.8664C0.913664 68.0665 1.23508 68.1727 1.56105 68.1727C1.70053 68.1727 1.84002 68.153 1.97647 68.115L4.59331 67.3691V86.11C3.60631 87.2456 3.07718 88.8724 3.07718 90.9661C3.07718 91.803 3.75641 92.4823 4.59331 92.4823H30.3675H30.5252H47.0449H53.1094H60.6901H66.5969H92.5288C93.3657 92.4823 94.0449 91.803 94.0449 90.9661C94.0449 87.9854 92.9745 85.9523 91.0127 84.9577V77.3225H81.9159C81.079 77.3225 80.3998 76.6433 80.3998 75.8064V66.7096C80.3998 65.8727 81.079 65.1935 81.9159 65.1935H91.0127V60.6451H81.9159C81.079 60.6451 80.3998 59.9659 80.3998 59.129V51.5483C80.3998 50.7114 81.079 50.0322 81.9159 50.0322ZM6.10944 28.2378V24.7553L61.9 40.8035L61.0524 41.0537L56.1281 42.5061L6.10944 28.2378ZM6.24286 89.4515C6.38841 88.7511 6.65373 88.272 7.01457 87.9399C7.03731 87.9233 7.06157 87.9157 7.08279 87.8975C7.57099 87.4881 8.31995 87.2804 9.30847 87.2804C9.49495 87.2804 9.72237 87.3441 10.0044 87.4775C10.3789 87.6519 10.8094 87.667 11.1961 87.5169C11.5811 87.3668 11.8904 87.0667 12.0481 86.6846C12.1846 86.3541 12.3331 86.0448 12.4923 85.7567C13.6082 83.7403 15.2729 82.7578 17.5592 82.7578C20.1715 82.7578 21.9742 84.042 23.0704 86.6846C23.2281 87.0667 23.5373 87.3668 23.9224 87.5169C24.1544 87.6079 24.4 87.6185 24.6441 87.5897C24.8033 87.5791 24.9625 87.5473 25.1126 87.4775C25.3961 87.3456 25.6235 87.2804 25.8085 87.2804C27.402 87.2804 28.5072 87.6822 28.8741 89.45L6.24286 89.4515ZM47.0449 89.4515H44.0127V69.7419H39.4643V89.4515H36.432V69.7419H25.8722V84.2497H25.81C25.6326 84.2497 25.4552 84.2618 25.2763 84.2861C24.6183 83.0974 23.7981 82.1438 22.8399 81.413V69.7419H18.2385V79.7483L17.5592 79.7271C16.7284 79.7271 15.9446 79.8241 15.2062 80.0076V68.2257C15.2062 67.3888 15.8854 66.7096 16.7223 66.7096H24.3561H37.9481H45.5288C46.3657 66.7096 47.0449 67.3888 47.0449 68.2257V89.4515ZM60.6901 66.7096C59.8532 66.7096 59.174 67.3888 59.174 68.2257V89.4515H54.6256V53.1084L74.3352 47.4896V81.3766C74.1124 81.5434 73.9001 81.7269 73.6939 81.9194C73.653 81.9573 73.6121 81.9952 73.5711 82.0331C73.3922 82.2059 73.2194 82.3864 73.0511 82.5774C72.9692 82.6714 72.8919 82.7699 72.8115 82.8685C72.6796 83.0338 72.5462 83.1975 72.4219 83.3764C72.2642 83.6023 72.1156 83.8434 71.9716 84.0905C71.9322 84.1587 71.8852 84.2179 71.8473 84.2876C71.6684 84.2633 71.491 84.2512 71.3136 84.2512C71.3106 84.2512 71.3075 84.2512 71.3045 84.2512V68.2257C71.3045 67.3888 70.6253 66.7096 69.7884 66.7096H60.6901ZM84.6298 85.7598C84.789 86.0478 84.9375 86.3571 85.074 86.6876C85.2317 87.0697 85.541 87.3699 85.926 87.52C86.1019 87.5882 86.2884 87.6231 86.4976 87.617C86.7099 87.614 86.9191 87.5715 87.1162 87.479C87.3997 87.3471 87.6271 87.2819 87.8136 87.2819C88.2821 87.2819 88.7172 87.335 89.1084 87.4381C89.1236 87.4427 89.1402 87.4366 89.1554 87.4396C90.0211 87.6777 90.6276 88.2401 90.8792 89.453H68.2707C68.292 89.3575 68.3056 89.2438 68.342 89.1165C68.5254 88.5085 68.859 87.9854 69.4275 87.6716C69.8369 87.4472 70.3023 87.3411 70.7663 87.3017C71.1696 87.2668 71.5956 87.2819 71.9731 87.4427C72.384 87.6155 72.763 87.6898 73.1997 87.5215C73.5848 87.3714 73.8941 87.0712 74.0517 86.6891C74.6036 85.3625 75.4557 84.1708 76.7292 83.4598C78.632 82.397 81.3094 82.5077 83.0515 83.8585C83.7095 84.3664 84.228 85.0335 84.6298 85.7598ZM75.5951 43.9768L75.436 44.0222L52.694 50.5052L5.69402 63.9032C5.69402 63.9032 5.6925 63.9032 5.6925 63.9048L3.07718 64.6507V61.3091L11.0839 58.9485C11.0839 58.9485 11.0854 58.9485 11.0869 58.9485L56.5556 45.5429L56.5647 45.5399L67.7507 42.2423L91.0111 35.3849V39.5845L75.5951 43.9768Z" fill="#162564"/>
<path d="M80.3989 7.58063C82.0712 7.58063 83.4312 8.9406 83.4312 10.6129C83.4312 11.4498 84.1104 12.129 84.9473 12.129C85.7842 12.129 86.4635 11.4498 86.4635 10.6129C86.4635 7.26831 89.1834 4.54837 92.528 4.54837C93.3649 4.54837 94.0441 3.86915 94.0441 3.03224C94.0441 2.19534 93.3649 1.51611 92.528 1.51611C89.1076 1.51611 86.1208 3.41431 84.5683 6.21308C83.4812 5.18211 82.0121 4.54837 80.3989 4.54837C79.562 4.54837 78.8828 5.2276 78.8828 6.0645C78.8828 6.9014 79.562 7.58063 80.3989 7.58063Z" fill="#162564"/>
<path d="M33.4005 24.258H48.5617C51.9063 24.258 54.6262 21.5381 54.6262 18.1935H57.6585C61.0031 18.1935 63.723 15.4736 63.723 12.129C63.723 8.57976 60.5998 5.72185 57.0399 6.09785C55.8619 3.37185 53.142 1.51611 50.0779 1.51611C47.0138 1.51611 44.2938 3.37185 43.1173 6.09785C41.019 5.87498 39.0905 6.79527 37.8442 8.3023C36.1158 9.09221 34.7513 10.4522 34.0175 12.1624C30.4667 11.7788 27.3359 14.6443 27.3359 18.1935C27.3359 21.5381 30.0559 24.258 33.4005 24.258ZM33.4005 15.1613C33.7567 15.1613 34.1236 15.2325 34.4905 15.375C34.9075 15.5342 35.3744 15.5054 35.7671 15.2901C36.1583 15.0749 36.4357 14.6973 36.5252 14.2592C36.5585 14.0879 36.6025 13.9211 36.6556 13.7573C36.7026 13.9241 36.7738 14.0803 36.8345 14.241C36.8754 14.3517 36.9088 14.4639 36.9558 14.57C37.7169 16.2847 39.3406 17.5749 41.1676 18.0207C42.4351 18.33 43.8435 18.192 45.1413 18.192C47.2927 18.192 49.4441 18.192 51.594 18.192C51.594 19.8643 50.234 21.2243 48.5617 21.2243H33.4005C31.7282 21.2243 30.3682 19.8643 30.3682 18.192C30.3682 16.5197 31.7282 15.1613 33.4005 15.1613Z" fill="#162564"/>
<path d="M18.2393 40.9355H9.14258V48.5162H18.2393V40.9355Z" fill="#162564"/>
<path d="M91.0123 68.2258H83.4316V74.2903H91.0123V68.2258Z" fill="#162564"/>
<path d="M91.0123 53.0645H83.4316V57.6128H91.0123V53.0645Z" fill="#162564"/>
</g>
<defs>
<clipPath id="clip0_163_308">
<rect width="94" height="94" fill="white"/>
</clipPath>
</defs>
</svg>
