<svg width="100" height="100" viewBox="0 0 100 100" fill="none" xmlns="http://www.w3.org/2000/svg">
<g clip-path="url(#clip0_163_277)">
<path d="M96.046 65.2295C95.2041 66.2499 94.2092 67.1683 93.1123 67.908V79.3366H94.5409C97.5511 79.3366 99.9746 76.9131 100 73.9284V60.1274L96.046 65.2295Z" fill="#58A85C"/>
<path d="M71.9388 40.8161H86.6582C87.0918 40.8161 87.551 40.7651 88.0102 40.6631V26.0712C88.0102 23.061 85.5612 20.6631 82.5765 20.6631H5.45918C2.44898 20.6631 0.0255102 23.0866 0 26.0712V84.5661C0.0255102 87.5763 2.44898 90.0253 5.45918 90.0508H82.5765C85.5867 90.0253 88.0102 87.5763 88.0102 84.5661L87.9847 69.7447C87.551 69.7957 87.0918 69.8468 86.6327 69.8723H71.9388C63.9286 69.8468 57.4235 63.3417 57.4235 55.3315C57.4235 47.3212 63.9286 40.8161 71.9388 40.8161Z" fill="#58A85C"/>
<path d="M94.5413 9.94922H17.4239C14.4137 9.97473 11.9902 12.4237 11.9902 15.4339V15.5615H82.577C88.3933 15.5615 93.1127 20.2553 93.1127 26.0717V36.7349L100 27.8574V15.4339C99.9749 12.4237 97.5515 9.97473 94.5413 9.94922Z" fill="#58A85C"/>
<path d="M99.9744 36.1992L96.0203 41.3013C94.8723 42.7809 93.3927 43.9798 91.7091 44.7706C90.1274 45.536 88.3927 45.9186 86.6325 45.9186H71.9387C66.7346 45.9441 62.5254 50.1533 62.5254 55.3574C62.5254 60.5615 66.7346 64.7706 71.9387 64.7962H86.658C88.7499 64.7706 90.7397 63.8013 92.0152 62.1431L99.9999 51.786L99.9744 36.1992ZM77.6529 57.9084H71.5305C70.1274 57.9084 68.9795 56.7604 68.9795 55.3574C68.9795 53.9543 70.1274 52.8064 71.5305 52.8064H77.6529C79.056 52.8064 80.204 53.9543 80.204 55.3574C80.204 56.7604 79.056 57.9084 77.6529 57.9084Z" fill="#58A85C"/>
</g>
<defs>
<clipPath id="clip0_163_277">
<rect width="100" height="100" fill="white"/>
</clipPath>
</defs>
</svg>
