<svg width="59" height="25" viewBox="0 0 59 25" fill="currentColor" xmlns="http://www.w3.org/2000/svg">
	<path fill-rule="evenodd" clip-rule="evenodd" d="M13.0345 0.913798C13.6344 1.48513 13.6575 2.43459 13.0862 3.03449L4.07143 12.5L13.0862 21.9655C13.6575 22.5654 13.6344 23.5149 13.0345 24.0862C12.4346 24.6575 11.4851 24.6344 10.9138 24.0345L0.913791 13.5345C0.362067 12.9552 0.362067 12.0448 0.913791 11.4655L10.9138 0.965522C11.4851 0.365627 12.4346 0.342469 13.0345 0.913798Z" fill="currentColor" />
	<path fill-rule="evenodd" clip-rule="evenodd" d="M3.5 12.5C3.5 11.6716 4.17157 11 5 11L57 11C57.8284 11 58.5 11.6716 58.5 12.5C58.5 13.3284 57.8284 14 57 14L5 14C4.17157 14 3.5 13.3284 3.5 12.5Z" fill="currentColor" />
</svg>
