<svg width="59" height="25" viewBox="0 0 59 25" fill="currentColor" xmlns="http://www.w3.org/2000/svg">
	<path fill-rule="evenodd" clip-rule="evenodd" d="M45.9655 24.0862C45.3656 23.5149 45.3425 22.5654 45.9138 21.9655L54.9286 12.5L45.9138 3.03448C45.3425 2.43459 45.3656 1.48512 45.9655 0.913793C46.5654 0.342464 47.5149 0.365621 48.0862 0.965516L58.0862 11.4655C58.6379 12.0448 58.6379 12.9552 58.0862 13.5345L48.0862 24.0345C47.5149 24.6344 46.5654 24.6575 45.9655 24.0862Z" fill="currentColor" />
	<path fill-rule="evenodd" clip-rule="evenodd" d="M55.5 12.5C55.5 13.3284 54.8284 14 54 14L2 14C1.17157 14 0.5 13.3284 0.5 12.5C0.5 11.6716 1.17157 11 2 11L54 11C54.8284 11 55.5 11.6716 55.5 12.5Z" fill="currentColor" />
</svg>
